<?xml version="1.0" encoding="UTF-8"?>
<svg width="32px" height="32px" viewBox="0 0 32 32" version="1.1" xmlns="http://www.w3.org/2000/svg" xmlns:xlink="http://www.w3.org/1999/xlink">
    <!-- Generator: Sketch 51.2 (57519) - http://www.bohemiancoding.com/sketch -->
    <title>Refresh icon</title>
    <desc>Created with Sketch.</desc>
    <defs></defs>
    <g stroke="none" stroke-width="1" fill="none" fill-rule="evenodd">
        <g>
            <rect fill="#FFFFFF" x="0" y="0" width="32" height="32"></rect>
            <path d="M32,16.0225487 L27.9442158,16.0225487 L27.9442158,15.6720278 C27.7595511,8.09051561 21.5767031,2 13.9763825,2 C6.25637187,2 0,8.27860003 0,16.0225487 C0,23.7664974 6.25637187,30.0416777 13.9763825,30.0416777 C17.2216938,30.0416777 20.2088164,28.9302698 22.5820999,27.0699438 L20.178039,24.4983168 C18.4408228,25.7772909 16.2966604,26.5381779 13.9763825,26.5381779 C8.18680202,26.5381779 3.49324071,21.8292278 3.49324071,16.0225487 C3.49324071,10.2158696 8.18680202,5.50691958 13.9763825,5.50691958 C19.6479829,5.50691958 24.2663104,10.0260753 24.4492652,15.6720278 L24.4492652,16.0225487 L19.8805236,16.0225487 L25.8547688,22.6807373 L32,16.0225487 Z" fill="#36AF6D" fill-rule="nonzero" transform="translate(16.000000, 16.020839) scale(-1, 1) translate(-16.000000, -16.020839) "></path>
        </g>
    </g>
</svg>