<svg width="100%" height="100%" viewBox="0 0 64 64" version="1.1" xmlns="http://www.w3.org/2000/svg" xmlns:xlink="http://www.w3.org/1999/xlink">
    <!-- Generator: sketchtool 3.7.2 (28276) - http://www.bohemiancoding.com/sketch -->
    <title>4E12692C-1461-4C95-B838-FD295A26224F</title>
    <desc>Created with sketchtool.</desc>
    <defs/>
    <g id="Page-1" stroke="none" stroke-width="1" fill="none" fill-rule="evenodd">
        <g id="view_component_photo" transform="translate(-256.000000, 0.000000)">
            <g id="flap" transform="translate(256.000000, 0.000000)">
                <polygon id="Path-1835" fill-opacity="0.3" fill="#242528" transform="translate(32.000000, 32.000000) scale(-1, 1) translate(-32.000000, -32.000000) " points="0 64 64 0 0 0"/>
                <path d="M48,16 L33.5,16 C32.6715729,16 32,15.3284271 32,14.5 C32,13.6715729 32.6715729,13 33.5,13 L49.5,13 C49.9142136,13 50.2892136,13.1678932 50.5606602,13.4393398 C50.8321068,13.7107864 51,14.0857864 51,14.5 L51,30.5 C51,31.3284271 50.3284271,32 49.5,32 C48.6715729,32 48,31.3284271 48,30.5 L48,16 L48,16 Z" id="Combined-Shape" fill="#FFFFFF"/>
            </g>
        </g>
    </g>
</svg>