<?xml version="1.0" encoding="UTF-8"?>
<svg width="16px" height="16px" viewBox="0 0 16 16" version="1.1" xmlns="http://www.w3.org/2000/svg" xmlns:xlink="http://www.w3.org/1999/xlink">
    <!-- Generator: Sketch 48.2 (47327) - http://www.bohemiancoding.com/sketch -->
    <title>Icon / 16px / Lock</title>
    <desc>Created with Sketch.</desc>
    <defs></defs>
    <g id="Page-1" stroke="none" stroke-width="1" fill="none" fill-rule="evenodd">
        <g id="Icon-/-16px-/-Lock" fill="#637381" fill-rule="nonzero">
            <path d="M11.6758853,6.90858633 L11.9405425,6.90858633 C12.54911,6.93468109 13.0225203,7.46320411 12.9991711,8.09045678 L12.9991711,12.8181023 C13.0225352,13.4453654 12.5491207,13.9739054 11.9405425,14 L4.07412593,14 C3.4655543,13.9738906 2.97665064,13.4453598 3,12.8181023 L3,8.09045678 C2.97666561,7.46320973 3.46556503,6.9346958 4.07412593,6.90858633 L4.33878308,6.90858633 L4.33878308,4.99804304 C4.33878308,3.89870604 4.56273597,3.25821255 5.06100599,2.7446013 C5.55927601,2.23099005 6.18034695,2 7.24662416,2 L8.76799133,2 C9.83426853,2 10.4554189,2.23096278 10.9536624,2.7446013 C11.451906,3.25823982 11.6758853,3.89870604 11.6758853,4.99804304 L11.6758853,6.90858633 Z M10.6172567,4.99850671 C10.6172567,4.29893606 10.4746859,3.89136913 10.1576531,3.56450825 C9.84062031,3.23764737 9.44535485,3.09069089 8.76677391,3.09069089 L7.24800038,3.09069089 C6.5694459,3.09069089 6.17415398,3.23764737 5.85714764,3.56450825 C5.5401413,3.89136913 5.3974117,4.29893606 5.3974117,4.99850671 L5.3974117,6.90858633 L10.6172567,6.90858633 L10.6172567,4.99850671 Z" id="Shape"></path>
        </g>
    </g>
</svg>